<svg xmlns="http://www.w3.org/2000/svg" version="1.1" xmlns:xlink="http://www.w3.org/1999/xlink" xmlns:svgjs="http://svgjs.com/svgjs" width="1000" height="1000"><g transform="matrix(20.408163265306122,0,0,20.408163265306122,-1.7623789736202866,95.30078914700721)"><svg xmlns="http://www.w3.org/2000/svg" version="1.1" xmlns:xlink="http://www.w3.org/1999/xlink" xmlns:svgjs="http://svgjs.com/svgjs" width="49" height="41"><svg width="49" height="41" viewBox="0 0 49 41" fill="none" xmlns="http://www.w3.org/2000/svg">
<g clip-path="url(#clip0_33454_287938)">
<path d="M48.6544 12.7966C48.6543 14.9698 47.9653 17.0691 46.7155 18.7043C45.4657 20.3395 43.7401 21.3993 41.8594 21.6868C43.0259 21.4645 44.0858 20.7754 44.8504 19.742C45.6149 18.7087 46.0346 17.3981 46.0348 16.0436C46.0346 14.5263 45.5084 13.0713 44.5719 11.9982C43.6353 10.9251 42.3652 10.3219 41.0405 10.3212H32.2887V3.82905H40.8244C42.9009 3.82905 44.8923 4.77381 46.3607 6.45552C47.8291 8.13723 48.6541 10.4181 48.6544 12.7966ZM28.7422 7.0345L32.2878 13.5131V0.555908L28.7422 7.0345Z" fill="#FF9900"></path>
<path d="M20.4076 31.2461L16.9118 24.9165L16.8662 4.62589C16.8678 4.04296 17.0711 3.48452 17.4316 3.07305C17.7921 2.66158 18.2804 2.43065 18.7893 2.43091H24.4877C24.8866 2.43092 25.2787 2.54986 25.6253 2.77602C25.972 3.00219 26.2613 3.3278 26.4648 3.72083L31.9715 14.3631C32.1771 14.7615 32.2864 15.2154 32.2881 15.6782V35.6158H29.9606C29.6382 35.6158 29.329 35.4691 29.101 35.208C28.873 34.9468 28.745 34.5927 28.745 34.2234V16.2477C28.7452 16.0364 28.6934 15.8293 28.5955 15.6501L23.4966 6.3461H21.1954C20.7594 6.3461 20.406 6.69955 20.406 7.13553L20.4076 31.2461Z" fill="#34306A"></path>
<path opacity="0.1" d="M16.9118 24.9165L18.6587 28.0908L18.657 5.55533C18.657 5.55533 18.657 5.13014 19.0175 4.74247C19.3113 4.4265 19.5605 4.41892 19.9721 4.41892C21.4017 4.41892 23.9486 4.4708 24.5094 4.32403C25.8148 3.98241 24.0496 2.43091 24.0496 2.43091H18.7893C18.2804 2.43065 17.7921 2.66158 17.4316 3.07305C17.0711 3.48452 16.8678 4.04296 16.8662 4.62589L16.9118 24.9165Z" fill="white"></path>
<path d="M20.1562 2.4209L24.4754 2.4209C24.8743 2.42091 25.2664 2.53985 25.6131 2.76601C25.9597 2.99218 26.249 3.31779 26.4525 3.71082L31.9592 14.3531C32.1649 14.7515 32.2741 15.2054 32.2758 15.6682V35.6058H29.9483C29.6259 35.6058 29.3167 35.4591 29.0888 35.198C28.8608 34.9368 28.7327 34.5827 28.7327 34.2134V16.2377C28.7329 16.0264 28.6812 15.8193 28.5833 15.6401C28.5833 15.6401 24.7821 8.59824 23.486 6.33996C22.8577 5.24529 22.3869 4.43112 21.735 3.42944C21.621 3.25413 21.5005 3.09548 21.2773 2.90416C21.1181 2.76773 20.891 2.64688 20.7191 2.58138C20.3587 2.44402 20.1562 2.4209 20.1562 2.4209Z" fill="#FF8C01"></path>
<path d="M20.1563 2.4209L22.8367 2.4209C23.2357 2.42091 23.6277 2.53985 23.9744 2.76601C24.321 2.99218 24.6103 3.31779 24.8138 3.71082L30.3206 14.3531C30.5262 14.7515 30.6355 15.2054 30.6371 15.6682V35.6058H29.9484C29.626 35.6058 29.3167 35.4591 29.0888 35.198C28.8608 34.9368 28.7327 34.5827 28.7327 34.2134V16.2377C28.733 16.0264 28.6812 15.8193 28.5833 15.6401C28.5833 15.6401 24.7821 8.59824 23.486 6.33996C22.8578 5.24529 22.3869 4.43112 21.7351 3.42944C21.621 3.25413 21.5005 3.09548 21.2773 2.90416C21.1181 2.76773 20.891 2.64688 20.7191 2.58138C20.3587 2.44402 20.1563 2.4209 20.1563 2.4209Z" fill="#FF9900"></path>
<path fill-rule="evenodd" clip-rule="evenodd" d="M43.821 11.7713C43.3743 11.1128 42.749 10.6434 42.0436 10.437C43.1718 10.702 44.1854 11.4052 44.9131 12.4277C45.6407 13.4502 46.0376 14.7291 46.0367 16.0482C46.0365 17.5658 45.51 19.021 44.5731 20.094C43.6362 21.1669 42.3656 21.7697 41.0407 21.7697H32.2855V17.8265H41.234C42.103 17.8265 42.9363 17.4311 43.5508 16.7273C44.1652 16.0235 44.5104 15.069 44.5104 14.0737C44.5102 13.2399 44.2676 12.4298 43.821 11.7713ZM16.5596 17.8284H28.7465V21.7678H16.5596V17.8284Z" fill="#34306A"></path>
<path d="M7.09735 29.1619C6.39199 28.9555 5.76668 28.486 5.32003 27.8276C4.87338 27.1691 4.63082 26.359 4.6306 25.5252C4.6306 24.5299 4.97578 23.5753 5.59022 22.8716C6.20465 22.1678 7.038 21.7724 7.90694 21.7724L16.8555 21.7724L16.8555 17.8292L8.10026 17.8292C6.77539 17.8292 5.50477 18.4319 4.56787 19.5049C3.63097 20.5778 3.10451 22.0331 3.10428 23.5506C3.10338 24.8697 3.50031 26.1487 4.22792 27.1712C4.95554 28.1937 5.96918 28.8969 7.09735 29.1619Z" fill="url(#paint0_linear_33454_287938)"></path>
<path opacity="0.1" d="M28.7464 19.8113H16.9053V21.7795H28.7464V19.8113Z" fill="white"></path>
<path opacity="0.1" d="M43.9083 11.6111C43.3163 11.019 42.7389 10.6436 42.0335 10.4373C43.1617 10.7022 44.1753 11.4054 44.9029 12.4279C45.6306 13.4504 46.0275 14.7294 46.0266 16.0485C46.0264 17.566 45.4999 19.0213 44.563 20.0942C43.6261 21.1672 42.3555 21.7699 41.0306 21.7699H32.2754V19.8008H41.2239C43.6123 19.7124 45.1911 17.9435 45.1911 15.2619C45.1911 12.8966 44.4017 12.2031 43.9083 11.6111Z" fill="white"></path>
<path opacity="0.1" d="M5.23327 27.9878C5.82529 28.5799 6.40273 28.9552 7.10809 29.1616C5.97992 28.8966 4.96629 28.1934 4.23867 27.171C3.51105 26.1485 3.11412 24.8695 3.11503 23.5504C3.11525 22.0329 3.64171 20.5776 4.57861 19.5046C5.51552 18.4317 6.78613 17.8289 8.111 17.8289L16.8662 17.8289L16.8662 19.7981L7.91768 19.7981C5.52928 19.8865 3.95054 21.6553 3.95054 24.337C3.95054 26.7023 4.73991 27.3958 5.23327 27.9878Z" fill="white"></path>
<path d="M48.6553 12.7966C48.6552 14.9698 47.9663 17.0691 46.7165 18.7043C45.4667 20.3395 43.7411 21.3993 41.8604 21.6868C43.0269 21.4645 44.0868 20.7754 44.8513 19.742C45.6159 18.7087 46.0356 17.3981 46.0358 16.0436C46.0356 14.5263 45.5094 13.0713 44.5728 11.9982C43.6363 10.9251 42.3661 10.3219 41.0415 10.3212H32.2897V3.82905H40.8254C42.9019 3.82905 44.8933 4.77381 46.3617 6.45552C47.8301 8.13723 48.6551 10.4181 48.6553 12.7966ZM28.7432 7.0345L32.2888 13.5131V0.555908L28.7432 7.0345Z" fill="#FF9900"></path>
<path d="M0.526311 26.7947C0.52641 24.6215 1.21539 22.5222 2.46518 20.887C3.71498 19.2518 5.44059 18.192 7.32128 17.9046C6.15475 18.1268 5.09489 18.816 4.33031 19.8493C3.56573 20.8826 3.14602 22.1932 3.14587 23.5477C3.14609 25.065 3.67229 26.5201 4.6088 27.5931C5.54532 28.6662 6.8155 29.2694 8.14016 29.2701L16.892 29.2701L16.892 35.7623L8.35627 35.7623C6.27978 35.7623 4.28833 34.8175 2.81995 33.1358C1.35157 31.4541 0.526534 29.1732 0.526311 26.7947ZM20.4385 32.5568L16.8928 26.0782L16.8928 39.0354L20.4385 32.5568Z" fill="#FF9900"></path>
<path d="M41.0199 7.03458L32.2681 7.03458L28.7233 7.03458L32.269 0.55599L32.2681 3.82913L40.8038 3.82913C42.8801 3.82938 44.8713 4.77409 46.3396 6.45554C47.8079 8.13699 48.6331 10.4175 48.6338 12.7957C48.6349 14.9699 47.9465 17.0706 46.6966 18.707C49.3128 9.62847 43.0205 7.03458 41.0199 7.03458Z" fill="#FF8C01"></path>
<path d="M8.1617 32.557L16.9135 32.557L20.4583 32.557L16.9127 39.0356L16.9135 35.7624L8.37781 35.7624C6.30154 35.7622 4.31035 34.8175 2.84204 33.136C1.37373 31.4546 0.548524 29.174 0.547852 26.7959C0.546725 24.6216 1.23515 22.5209 2.48506 20.8845C-0.131199 29.9631 6.16117 32.557 8.1617 32.557Z" fill="#FF8C01"></path>
<path d="M7.14715 29.1746C6.44179 28.9682 5.81648 28.4987 5.36984 27.8403C4.92319 27.1818 4.68063 26.3717 4.6804 25.5378C4.6804 24.5426 5.02559 23.588 5.64002 22.8843C6.25445 22.1805 7.0878 21.7851 7.95674 21.7851L16.9053 21.7851L16.9053 17.8419L8.15007 17.8419C6.8252 17.8419 5.55458 18.4446 4.61767 19.5176C3.68077 20.5905 3.15431 22.0458 3.15409 23.5633C3.15318 24.8824 3.55011 26.1614 4.27773 27.1839C5.00535 28.2064 6.01898 28.9096 7.14715 29.1746Z" fill="#484579"></path>
<path d="M5.28287 28.0008C5.8749 28.5928 6.45233 28.9682 7.15769 29.1746C6.02952 28.9096 5.01589 28.2064 4.28827 27.1839C3.56065 26.1614 3.16372 24.8824 3.16463 23.5633C3.16485 22.0458 3.69131 20.5905 4.62821 19.5176C5.56512 18.4446 6.83574 17.8419 8.16061 17.8419L18.2539 17.8419L18.2539 19.811L7.96728 19.811C5.57888 19.8994 4.00014 21.6683 4.00014 24.3499C4.00014 26.7152 4.78951 27.4087 5.28287 28.0008Z" fill="#34306A"></path>
</g>
<defs>
<linearGradient id="paint0_linear_33454_287938" x1="2.59642" y1="27.188" x2="17.0135" y2="25.6652" gradientUnits="userSpaceOnUse">
<stop offset="0.0748513" stop-color="#3C3B3B"></stop>
<stop offset="0.370212" stop-color="#5E5D5D"></stop>
<stop offset="1" stop-color="#5E5D5D"></stop>
</linearGradient>
<clipPath id="clip0_33454_287938">
<rect width="48.9169" height="40.0229" fill="white"></rect>
</clipPath>
</defs>
</svg></svg></g></svg>